<svg width="1060" height="954" viewBox="0 0 1060 954" fill="none" xmlns="http://www.w3.org/2000/svg">
<path d="M593.36 18.3317C604.083 22.3226 615.538 23.9668 626.951 23.1533L665.626 20.3966C685.135 19.0061 704.477 24.8102 719.997 36.7119L747.38 57.711C756.791 64.9285 767.69 69.9631 779.287 72.4502L814.57 80.017C834.648 84.323 852.301 96.1848 863.875 113.147L880.202 137.073C887.305 147.483 896.768 156.068 907.818 162.127L934.832 176.941C953.996 187.449 968.026 205.341 973.662 226.458L979.695 249.065C983.16 262.046 989.838 273.946 999.113 283.666L1016.22 301.597C1032.12 318.256 1040.07 340.957 1038.03 363.894L1036.26 383.857C1035.03 397.806 1037.47 411.836 1043.36 424.543L1051.99 443.184C1061.87 464.509 1061.87 489.097 1051.99 510.422L1043.36 529.064C1037.47 541.771 1035.03 555.801 1036.26 569.75L1038.03 589.713C1040.07 612.65 1032.12 635.351 1016.22 652.01L999.113 669.941C989.838 679.661 983.16 691.56 979.695 704.542L973.662 727.148C968.026 748.265 953.996 766.157 934.832 776.666L907.818 791.479C896.768 797.539 887.305 806.123 880.202 816.533L863.875 840.459C852.301 857.421 834.648 869.282 814.57 873.588L779.287 881.155C767.69 883.642 756.791 888.677 747.38 895.894L719.996 916.894C704.477 928.795 685.135 934.6 665.627 933.209L626.95 930.453C615.537 929.64 604.083 931.284 593.36 935.274L557.602 948.582C539.603 955.28 519.795 955.28 501.797 948.582L466.037 935.274C455.314 931.284 443.86 929.64 432.448 930.453L393.772 933.209C374.263 934.6 354.922 928.795 339.402 916.894L312.019 895.895C302.607 888.677 291.708 883.642 280.112 881.155L244.828 873.588C224.75 869.282 207.096 857.421 195.522 840.459L179.196 816.533C172.092 806.123 162.63 797.539 151.58 791.479L124.566 776.666C105.402 766.157 91.3723 748.265 85.7366 727.149L79.7034 704.542C76.2389 691.561 69.5606 679.661 60.2848 669.94L43.1739 652.01C27.2765 635.351 19.3284 612.649 21.3627 589.712L23.1333 569.749C24.3704 555.8 21.9244 541.771 16.0398 529.064L7.40618 510.421C-2.46892 489.097 -2.46886 464.509 7.40635 443.185L16.0396 424.543C21.9243 411.835 24.3704 397.806 23.1332 383.857L21.3627 363.894C19.3284 340.957 27.2765 318.256 43.1739 301.597L60.2848 283.666C69.5606 273.946 76.2389 262.046 79.7034 249.064L85.7366 226.458C91.3723 205.341 105.402 187.449 124.566 176.941L151.58 162.127C162.63 156.068 172.092 147.483 179.196 137.073L195.522 113.147C207.096 96.1848 224.75 84.323 244.828 80.0171L280.112 72.4502C291.708 69.9631 302.607 64.9285 312.019 57.711L339.402 36.712C354.921 24.8102 374.264 19.0061 393.772 20.3966L432.447 23.1533C443.86 23.9668 455.315 22.3226 466.038 18.3318L501.796 5.02411C519.795 -1.67443 539.603 -1.6744 557.602 5.02422L593.36 18.3317Z" fill="#BAD8B6"/>
<path d="M734.963 857.653C739.165 858.491 747.631 861.867 764.514 865.047C774.638 866.954 783.174 867.377 790.365 869.071C796.672 870.558 805.16 872.86 812.16 875.837C818.81 878.665 825.064 883.853 831.41 889.369C837.364 894.542 842.835 897.41 847.919 900.799C852.818 904.065 858.067 905.458 863.361 908.206C866.319 909.742 870.761 910.117 887.136 910.751C900.998 910.967 926.132 910.967 939.708 910.758C953.284 910.548 954.54 910.129 955.835 909.698" stroke="#BAD8B6" stroke-width="50" stroke-linecap="round"/>
</svg>
